<svg width="23" height="24" viewBox="0 0 23 24" fill="none" xmlns="http://www.w3.org/2000/svg">
<path d="M15.0937 9V5.25C15.0937 4.65326 14.8666 4.08097 14.4622 3.65901C14.0578 3.23705 13.5094 3 12.9375 3H7.1875C6.61563 3 6.06718 3.23705 5.6628 3.65901C5.25843 4.08097 5.03125 4.65326 5.03125 5.25V18.75C5.03125 19.3467 5.25843 19.919 5.6628 20.341C6.06718 20.7629 6.61563 21 7.1875 21H12.9375C13.5094 21 14.0578 20.7629 14.4622 20.341C14.8666 19.919 15.0937 19.3467 15.0937 18.75V15M11.5 9L8.625 12M8.625 12L11.5 15M8.625 12H20.8437" stroke="white" stroke-width="1.2" stroke-linecap="round" stroke-linejoin="round"/>
</svg>
