<svg width="44" height="44" viewBox="0 0 44 44" fill="none" xmlns="http://www.w3.org/2000/svg">
<path id="Vector" d="M22 0C17.6488 0 13.3953 1.29028 9.77746 3.70767C6.15958 6.12506 3.33979 9.56099 1.67466 13.581C0.00953221 17.6009 -0.426141 22.0244 0.422734 26.292C1.27161 30.5596 3.3669 34.4796 6.44366 37.5563C9.52041 40.6331 13.4404 42.7284 17.708 43.5773C21.9756 44.4261 26.3991 43.9905 30.419 42.3253C34.439 40.6602 37.8749 37.8404 40.2923 34.2225C42.7097 30.6047 44 26.3512 44 22C44 19.1109 43.431 16.2501 42.3254 13.581C41.2197 10.9118 39.5992 8.48654 37.5564 6.44365C35.5135 4.40076 33.0882 2.78025 30.419 1.67465C27.7499 0.569047 24.8891 0 22 0ZM19.8 11C19.8 10.4165 20.0318 9.85694 20.4444 9.44436C20.857 9.03178 21.4165 8.8 22 8.8C22.5835 8.8 23.1431 9.03178 23.5556 9.44436C23.9682 9.85694 24.2 10.4165 24.2 11V24.2C24.2 24.7835 23.9682 25.343 23.5556 25.7556C23.1431 26.1682 22.5835 26.4 22 26.4C21.4165 26.4 20.857 26.1682 20.4444 25.7556C20.0318 25.343 19.8 24.7835 19.8 24.2V11ZM22 37.4C21.3473 37.4 20.7093 37.2064 20.1666 36.8438C19.6239 36.4812 19.201 35.9658 18.9512 35.3628C18.7014 34.7598 18.6361 34.0963 18.7634 33.4562C18.8907 32.8161 19.205 32.2281 19.6666 31.7665C20.1281 31.305 20.7161 30.9907 21.3562 30.8634C21.9963 30.7361 22.6599 30.8014 23.2629 31.0512C23.8659 31.301 24.3812 31.7239 24.7439 32.2666C25.1065 32.8093 25.3 33.4473 25.3 34.1C25.3 34.9752 24.9523 35.8146 24.3335 36.4334C23.7146 37.0523 22.8752 37.4 22 37.4Z" fill="#E10000"/>
</svg>
