<svg width="25" height="24" viewBox="0 0 25 24" fill="none" xmlns="http://www.w3.org/2000/svg">
<path d="M2.75 12.76C2.75 14.36 3.873 15.754 5.457 15.987C6.544 16.147 7.642 16.27 8.75 16.356V21L12.826 16.924C13.1024 16.6493 13.4735 16.4909 13.863 16.481C15.7644 16.4284 17.661 16.2634 19.543 15.987C21.127 15.754 22.25 14.361 22.25 12.759V6.741C22.25 5.139 21.127 3.746 19.543 3.513C17.211 3.17072 14.857 2.99926 12.5 3C10.108 3 7.756 3.175 5.457 3.513C3.873 3.746 2.75 5.14 2.75 6.741V12.759V12.76Z" stroke="white" stroke-width="1.5" stroke-linecap="round" stroke-linejoin="round"/>
<path d="M4 3H0L6 8L6.5 5.5L4 3Z" fill="#616161"/>
<path d="M18 14H14L20 19L20.5 16.5L18 14Z" fill="#616161"/>
<path d="M2.5 1.5L22.5 18" stroke="white" stroke-width="1.8" stroke-linecap="round"/>
</svg>
