<svg width="current" height="current" viewBox="0 0 15 15" fill="none" xmlns="http://www.w3.org/2000/svg">
<path d="M7.5 2.5C4.73858 2.5 2.5 4.73858 2.5 7.5C2.5 10.2614 4.73858 12.5 7.5 12.5C10.2614 12.5 12.5 10.2614 12.5 7.5C12.5 4.73858 10.2614 2.5 7.5 2.5ZM1.25 7.5C1.25 4.04822 4.04822 1.25 7.5 1.25C10.9518 1.25 13.75 4.04822 13.75 7.5C13.75 10.9518 10.9518 13.75 7.5 13.75C4.04822 13.75 1.25 10.9518 1.25 7.5Z" fill="current"/>
<path d="M7.5 8.75C7.15482 8.75 6.875 8.47018 6.875 8.125L6.875 4.375C6.875 4.02982 7.15482 3.75 7.5 3.75C7.84518 3.75 8.125 4.02982 8.125 4.375L8.125 8.125C8.125 8.47018 7.84518 8.75 7.5 8.75Z" fill="current"/>
<path d="M6.5625 10.3125C6.5625 9.79473 6.98223 9.375 7.5 9.375C8.01777 9.375 8.4375 9.79473 8.4375 10.3125C8.4375 10.8303 8.01777 11.25 7.5 11.25C6.98223 11.25 6.5625 10.8303 6.5625 10.3125Z" fill="current"/>
</svg>
