<svg width="14" height="14" viewBox="0 0 14 14" fill="none" xmlns="http://www.w3.org/2000/svg">
<path id="Vector" d="M1.79222 0.277782C1.59602 0.09496 1.33651 -0.00456969 1.06838 0.000161249C0.80024 0.00489219 0.544409 0.113514 0.354779 0.303144C0.165149 0.492774 0.0565267 0.748606 0.0517958 1.01674C0.0470648 1.28488 0.146594 1.54438 0.329417 1.74058L5.46302 6.87418L0.329417 12.0078C0.227729 12.1025 0.146168 12.2168 0.0895992 12.3438C0.0330303 12.4707 0.00261304 12.6078 0.000161077 12.7467C-0.00229089 12.8857 0.0232728 13.0238 0.0753278 13.1526C0.127383 13.2815 0.204862 13.3986 0.303144 13.4969C0.401426 13.5951 0.518497 13.6726 0.647372 13.7247C0.776248 13.7767 0.914288 13.8023 1.05326 13.7998C1.19223 13.7974 1.32928 13.767 1.45624 13.7104C1.5832 13.6538 1.69746 13.5723 1.79222 13.4706L6.92582 8.33698L12.0594 13.4706C12.1542 13.5723 12.2684 13.6538 12.3954 13.7104C12.5224 13.767 12.6594 13.7974 12.7984 13.7998C12.9373 13.8023 13.0754 13.7767 13.2043 13.7247C13.3331 13.6726 13.4502 13.5951 13.5485 13.4969C13.6468 13.3986 13.7243 13.2815 13.7763 13.1526C13.8284 13.0238 13.8539 12.8857 13.8515 12.7467C13.849 12.6078 13.8186 12.4707 13.762 12.3438C13.7055 12.2168 13.6239 12.1025 13.5222 12.0078L8.38862 6.87418L13.5222 1.74058C13.705 1.54438 13.8046 1.28488 13.7998 1.01674C13.7951 0.748606 13.6865 0.492774 13.4969 0.303144C13.3072 0.113514 13.0514 0.00489219 12.7833 0.000161249C12.5151 -0.00456969 12.2556 0.09496 12.0594 0.277782L6.92582 5.41138L1.79222 0.277782Z" fill="current"/>
</svg>
