<svg width="100%" height="100%" viewBox="0 0 370 47" fill="none" xmlns="http://www.w3.org/2000/svg">
<path d="M15.1004 21.7397H60.9404L58.1404 14.7897C55.5804 9.46973 49.7804 5.46973 42.8804 5.46973C42.6804 5.46973 42.4804 5.48969 42.2804 5.49969V5.46973H0.44043L1.88043 9.96973C2.99043 13.4397 4.96043 16.4497 7.52043 18.7997C9.58043 20.6997 12.2904 21.7397 15.0904 21.7397H15.1004Z" fill="url(#paint0_linear_694_1185)"/>
<path d="M50.4507 46.1596C59.4607 46.1996 65.6507 41.7196 65.6907 33.7596C65.7007 31.4596 65.0307 29.3496 64.0207 27.3696L58.5507 15.6396C58.2907 15.0896 58.0907 14.6296 57.7607 14.0396L57.4007 13.4196L56.9507 12.7396L56.7107 12.4096C56.6707 12.3496 56.6107 12.2696 56.5507 12.1896L56.2307 11.7796L55.4007 10.8296L55.9107 11.3896C56.9607 12.7396 57.4507 13.7096 57.4407 15.5696C57.4407 17.0896 57.1407 18.5396 56.6307 19.9096C54.2607 25.3196 51.5107 29.9296 44.5507 29.8996C44.3507 29.8996 40.6607 29.8996 40.4607 29.8996L16.5107 29.7896L18.2607 35.2296C20.6407 42.6496 27.9207 46.0796 35.7107 46.2096" fill="url(#paint1_linear_694_1185)"/>
<path d="M91.96 13.1498H102.11V45.2899H91.96V13.1498ZM92.03 0.859863H102.11V8.62982H92.03V0.859863Z" fill="#141414"/>
<path d="M135.02 20.19C135.02 18.06 134.29 16.7401 132.02 16.7401H122.01C119.67 16.7401 118.94 18.07 118.94 20.19V45.23H109.19C109.26 45.3 109.19 28.69 109.19 20.13C109.19 16.88 109.23 14.9 109.23 13.29H118.64L118.6 16.81C119.67 15.02 119.53 13.29 123.41 13.29H137.83C142.57 13.29 144.84 15.55 144.84 21.59V45.23H135.02V20.19Z" fill="#141414"/>
<path d="M158.9 45.29C154.89 45.29 152.16 42.97 152.16 36.66V16.34V13.22V4.79004H162.04V13.22H173.59V16.34H162.04V37.39C162.04 40.78 163.24 41.91 165.98 41.91H176.2V45.3H158.91L158.9 45.29Z" fill="#141414"/>
<path d="M209.04 41.7097C208.64 43.0397 208.11 45.2297 204.37 45.2297H189.81C185.07 45.2297 182.87 42.9697 182.87 36.8597V13.2197H192.62V38.3197C192.62 40.5097 193.35 41.7097 195.62 41.7097H205.7C207.97 41.7097 208.71 40.5197 208.71 38.3197C208.71 29.6897 208.64 21.7797 208.64 13.2197H218.46V38.3197C218.46 41.6397 218.66 43.6497 218.66 45.2297H209.09L209.04 41.7097Z" fill="#141414"/>
<path d="M225.6 13.1498H235.75V45.2899H225.6V13.1498ZM225.67 0.859863H235.75V8.62982H225.67V0.859863Z" fill="#141414"/>
<path d="M251.2 45.29C247.19 45.29 244.46 42.97 244.46 36.66V16.34V13.22V4.79004H254.34V13.22H265.89V16.34H254.34V37.39C254.34 40.78 255.54 41.91 258.28 41.91H268.5V45.3H251.21L251.2 45.29Z" fill="#141414"/>
<path d="M275.17 13.1498H285.32V45.2899H275.17V13.1498ZM275.24 0.859863H285.32V8.62982H275.24V0.859863Z" fill="#141414"/>
<path d="M359.57 20.19C359.57 18.06 358.84 16.7401 356.57 16.7401H346.56C344.22 16.7401 343.49 18.07 343.49 20.19V45.23H333.74C333.81 45.3 333.74 28.69 333.74 20.13C333.74 16.88 333.74 14.85 333.74 13.29H343.18L343.15 16.81C344.22 15.02 344.08 13.29 347.96 13.29H362.38C367.12 13.29 369.39 15.55 369.39 21.59V45.23H359.57V20.19Z" fill="#141414"/>
<path d="M298.51 45.6198C293.77 45.6198 291.5 43.3598 291.5 37.2498V21.9799C291.5 15.9399 293.77 13.6099 298.51 13.6099H320.54C325.28 13.6099 327.55 15.9299 327.55 21.9799V37.2498C327.55 43.3598 325.28 45.6198 320.54 45.6198H298.51ZM314.8 17.1298H304.25C301.98 17.1298 301.25 18.4598 301.25 20.5198V38.7198C301.25 40.9098 302.05 42.1099 304.25 42.1099H314.8C317 42.1099 317.74 40.9098 317.74 38.7198V20.5198C317.74 18.4598 317.07 17.1298 314.8 17.1298Z" fill="#141414"/>
<defs>
<linearGradient id="paint0_linear_694_1185" x1="0.45043" y1="13.6097" x2="60.9404" y2="13.6097" gradientUnits="userSpaceOnUse">
<stop stop-color="#25B1F2"/>
<stop offset="1" stop-color="#1345F4"/>
</linearGradient>
<linearGradient id="paint1_linear_694_1185" x1="65.6907" y1="28.5096" x2="16.5107" y2="28.5096" gradientUnits="userSpaceOnUse">
<stop stop-color="#25B1F2"/>
<stop offset="1" stop-color="#1345F4"/>
</linearGradient>
</defs>
</svg>
