<svg width="24" height="24" viewBox="0 0 24 24" fill="none" xmlns="http://www.w3.org/2000/svg">
<g id="paper-airplane/solid">
<path id="Vector" d="M3.47842 2.40498C3.34857 2.36732 3.21094 2.36547 3.08011 2.39962C2.94929 2.43377 2.83013 2.50265 2.73524 2.59897C2.64035 2.69529 2.57327 2.81547 2.54108 2.9468C2.5089 3.07812 2.51282 3.2157 2.55243 3.34498L4.98443 11.25H13.5004C13.6993 11.25 13.8901 11.329 14.0308 11.4697C14.1714 11.6103 14.2504 11.8011 14.2504 12C14.2504 12.1989 14.1714 12.3897 14.0308 12.5303C13.8901 12.671 13.6993 12.75 13.5004 12.75H4.98443L2.55243 20.655C2.51282 20.7843 2.5089 20.9218 2.54108 21.0532C2.57327 21.1845 2.64035 21.3047 2.73524 21.401C2.83013 21.4973 2.94929 21.5662 3.08011 21.6003C3.21094 21.6345 3.34857 21.6326 3.47842 21.595C10.0934 19.6713 16.3314 16.6323 21.9234 12.609C22.0201 12.5395 22.0988 12.4481 22.1531 12.3422C22.2074 12.2363 22.2357 12.119 22.2357 12C22.2357 11.881 22.2074 11.7637 22.1531 11.6578C22.0988 11.5519 22.0201 11.4604 21.9234 11.391C16.3314 7.36763 10.0934 4.32863 3.47842 2.40498Z" fill="white"/>
</g>
</svg>
