<svg width="current" height="current" viewBox="0 0 30 30" fill="none" xmlns="http://www.w3.org/2000/svg">
<path d="M26.25 15C26.25 16.4774 25.959 17.9403 25.3936 19.3052C24.8283 20.6701 23.9996 21.9103 22.955 22.955C21.9103 23.9996 20.6701 24.8283 19.3052 25.3936C17.9403 25.959 16.4774 26.25 15 26.25C13.5226 26.25 12.0597 25.959 10.6948 25.3936C9.3299 24.8283 8.08971 23.9996 7.04505 22.955C6.00039 21.9103 5.17172 20.6701 4.60636 19.3052C4.04099 17.9403 3.75 16.4774 3.75 15C3.75 12.0163 4.93526 9.15483 7.04505 7.04505C9.15483 4.93526 12.0163 3.75 15 3.75C17.9837 3.75 20.8452 4.93526 22.955 7.04505C25.0647 9.15483 26.25 12.0163 26.25 15Z" stroke="current" stroke-width="1.5" stroke-linecap="round" stroke-linejoin="round"/>
<path d="M11.25 11.9537C11.25 11.565 11.565 11.25 11.9538 11.25H18.0463C18.435 11.25 18.75 11.565 18.75 11.9537V18.0463C18.75 18.435 18.435 18.75 18.0463 18.75H11.955C11.8624 18.7503 11.7707 18.7324 11.6851 18.6971C11.5995 18.6619 11.5217 18.6101 11.4562 18.5447C11.3907 18.4793 11.3387 18.4016 11.3034 18.316C11.268 18.2305 11.2498 18.1388 11.25 18.0463V11.955V11.9537Z" stroke="white" stroke-width="1.5" stroke-linecap="round" stroke-linejoin="round"/>
</svg>
