<svg width="100%" height="100%" viewBox="0 0 24 24" fill="none" xmlns="http://www.w3.org/2000/svg">
<path d="M15.73 5.25H16.765C17.5729 6.47385 18.0024 7.90854 18 9.375C18.0024 10.8415 17.5729 12.2762 16.765 13.5H16.617C15.811 13.5 15.083 13.946 14.586 14.58C13.8098 15.5704 12.8353 16.3878 11.725 16.98C11.002 17.364 10.375 17.936 10.072 18.695C9.85919 19.2268 9.7499 19.7942 9.75 20.367V21C9.75 21.1989 9.67098 21.3897 9.53033 21.5303C9.38968 21.671 9.19891 21.75 9 21.75C8.40326 21.75 7.83097 21.5129 7.40901 21.091C6.98705 20.669 6.75 20.0967 6.75 19.5C6.75 18.348 7.01 17.257 7.473 16.282C7.74 15.724 7.366 15 6.748 15H3.622C2.596 15 1.677 14.306 1.568 13.285C1.52262 12.8582 1.49992 12.4292 1.5 12C1.5 9.152 2.492 6.536 4.149 4.479C4.537 3.997 5.136 3.75 5.754 3.75H9.77C10.2536 3.74971 10.7341 3.82737 11.193 3.98L14.307 5.02C14.7659 5.17263 15.2464 5.2503 15.73 5.25ZM21.669 13.773C22.205 12.411 22.5 10.928 22.5 9.375C22.5 8.155 22.318 6.977 21.98 5.868C21.72 5.018 20.896 4.5 20.007 4.5H19.1C18.655 4.5 18.38 4.998 18.577 5.398C19.168 6.598 19.501 7.948 19.501 9.375C19.5037 11.0204 19.0532 12.6347 18.199 14.041C17.954 14.444 18.227 15 18.699 15H19.752C20.584 15 21.363 14.547 21.669 13.773Z" fill="white"/>
</svg>
