<svg width="22" height="22" viewBox="0 0 22 22" fill="none" xmlns="http://www.w3.org/2000/svg">
<path d="M16.4835 17.1648C15.843 16.3168 15.0143 15.629 14.0627 15.1558C13.1112 14.6826 12.0627 14.4368 11 14.4377C9.93723 14.4368 8.88878 14.6826 7.93722 15.1558C6.98566 15.629 6.15698 16.3168 5.51647 17.1648M16.4835 17.1648C17.7333 16.0531 18.6148 14.5876 19.0127 12.9629C19.4106 11.3381 19.3052 9.6308 18.7105 8.06732C18.1158 6.50385 17.0598 5.1581 15.6827 4.20854C14.3055 3.25898 12.6723 2.75049 10.9995 2.75049C9.32674 2.75049 7.69349 3.25898 6.31636 4.20854C4.93922 5.1581 3.88327 6.50385 3.28854 8.06732C2.69382 9.6308 2.58841 11.3381 2.98631 12.9629C3.3842 14.5876 4.2666 16.0531 5.51647 17.1648M16.4835 17.1648C14.9747 18.5106 13.0218 19.2531 11 19.2502C8.97783 19.2533 7.02552 18.5108 5.51647 17.1648M13.75 8.93772C13.75 9.66706 13.4602 10.3665 12.9445 10.8823C12.4288 11.398 11.7293 11.6877 11 11.6877C10.2706 11.6877 9.57115 11.398 9.05543 10.8823C8.5397 10.3665 8.24997 9.66706 8.24997 8.93772C8.24997 8.20837 8.5397 7.5089 9.05543 6.99317C9.57115 6.47745 10.2706 6.18772 11 6.18772C11.7293 6.18772 12.4288 6.47745 12.9445 6.99317C13.4602 7.5089 13.75 8.20837 13.75 8.93772Z" stroke="white" stroke-width="1.2" stroke-linecap="round" stroke-linejoin="round"/>
</svg>
