<svg width="current" height="current" viewBox="0 0 32 32" fill="none" xmlns="http://www.w3.org/2000/svg">
<path id="Vector" fill-rule="evenodd" clip-rule="evenodd" d="M26.9703 27.6463C28.5604 26.1522 29.8272 24.3477 30.6923 22.3445C31.5575 20.3413 32.0025 18.182 32 16C32 7.16307 24.8369 0 16 0C7.16308 0 1.06818e-05 7.16307 1.06818e-05 16C-0.00251404 18.182 0.442541 20.3413 1.30766 22.3445C2.17278 24.3477 3.43958 26.1522 5.02975 27.6463C7.99498 30.4474 11.921 32.0055 16 32C20.079 32.0055 24.005 30.4474 26.9703 27.6463ZM6.3918 25.5376C7.54393 24.0962 9.00597 22.9329 10.6694 22.134C12.3327 21.3351 14.1547 20.9212 16 20.9231C17.8453 20.9212 19.6673 21.3351 21.3306 22.134C22.994 22.9329 24.4561 24.0962 25.6082 25.5376C24.3512 26.8073 22.8546 27.8147 21.2053 28.5015C19.5559 29.1883 17.7866 29.5408 16 29.5384C14.2134 29.5408 12.4441 29.1883 10.7947 28.5015C9.14536 27.8147 7.64878 26.8073 6.3918 25.5376ZM22.1538 11.0769C22.1538 12.709 21.5055 14.2743 20.3514 15.4283C19.1974 16.5824 17.6321 17.2308 16 17.2308C14.3679 17.2308 12.8026 16.5824 11.6486 15.4283C10.4945 14.2743 9.84616 12.709 9.84616 11.0769C9.84616 9.44482 10.4945 7.87956 11.6486 6.72549C12.8026 5.57142 14.3679 4.92307 16 4.92307C17.6321 4.92307 19.1974 5.57142 20.3514 6.72549C21.5055 7.87956 22.1538 9.44482 22.1538 11.0769Z" fill="white"/>
</svg>
