<svg width="23" height="23" viewBox="0 0 23 23" fill="none" xmlns="http://www.w3.org/2000/svg">
<path d="M20.125 11.5C20.125 10.9281 19.8978 10.3797 19.4934 9.9753C19.0891 9.57093 18.5406 9.34375 17.9687 9.34375H14.375C14.375 10.1062 14.0721 10.8375 13.5329 11.3767C12.9938 11.9158 12.2625 12.2187 11.5 12.2187C10.7375 12.2187 10.0062 11.9158 9.46707 11.3767C8.9279 10.8375 8.625 10.1062 8.625 9.34375H5.03125C4.45938 9.34375 3.91093 9.57093 3.50655 9.9753C3.10218 10.3797 2.875 10.9281 2.875 11.5M20.125 11.5V17.25C20.125 17.8219 19.8978 18.3703 19.4934 18.7747C19.0891 19.1791 18.5406 19.4062 17.9687 19.4062H5.03125C4.45938 19.4062 3.91093 19.1791 3.50655 18.7747C3.10218 18.3703 2.875 17.8219 2.875 17.25V11.5M20.125 11.5V8.625M2.875 11.5V8.625M20.125 8.625C20.125 8.05313 19.8978 7.50468 19.4934 7.1003C19.0891 6.69593 18.5406 6.46875 17.9687 6.46875H5.03125C4.45938 6.46875 3.91093 6.69593 3.50655 7.1003C3.10218 7.50468 2.875 8.05313 2.875 8.625M20.125 8.625V5.75C20.125 5.17813 19.8978 4.62968 19.4934 4.2253C19.0891 3.82093 18.5406 3.59375 17.9687 3.59375H5.03125C4.45938 3.59375 3.91093 3.82093 3.50655 4.2253C3.10218 4.62968 2.875 5.17813 2.875 5.75V8.625" stroke="white" stroke-width="1.2" stroke-linecap="round" stroke-linejoin="round"/>
</svg>
