<svg width="20" height="20" viewBox="0 0 20 20" fill="none" xmlns="http://www.w3.org/2000/svg">
<g id="arrow-path/mini">
<path id="Vector" fill-rule="evenodd" clip-rule="evenodd" d="M14.6968 11.2745C14.4759 12.1091 14.0421 12.8701 13.4389 13.4811C12.8357 14.092 12.0844 14.5314 11.2604 14.7551C10.4364 14.9788 9.56879 14.9788 8.74476 14.7553C7.92074 14.5318 7.16931 14.0925 6.566 13.4817L6.2903 13.2033H8.44029C8.61607 13.2033 8.78464 13.1326 8.90894 13.0067C9.03323 12.8808 9.10306 12.7101 9.10306 12.532C9.10306 12.354 9.03323 12.1833 8.90894 12.0574C8.78464 11.9315 8.61607 11.8608 8.44029 11.8608H4.69083C4.51506 11.8608 4.34648 11.9315 4.22219 12.0574C4.0979 12.1833 4.02807 12.354 4.02807 12.532V16.3287C4.02807 16.5068 4.0979 16.6775 4.22219 16.8034C4.34648 16.9293 4.51506 17 4.69083 17C4.86661 17 5.03518 16.9293 5.15947 16.8034C5.28377 16.6775 5.35359 16.5068 5.35359 16.3287V14.1538L5.62753 14.4313C6.39532 15.2091 7.35174 15.7685 8.40066 16.0533C9.44958 16.338 10.554 16.3381 11.603 16.0534C12.6519 15.7687 13.6084 15.2094 14.3762 14.4317C15.1441 13.6539 15.6962 12.6851 15.9772 11.6227C16.0229 11.4507 15.9993 11.2674 15.9115 11.113C15.8238 10.9587 15.6791 10.846 15.5093 10.7997C15.3395 10.7534 15.1585 10.7773 15.0061 10.8662C14.8537 10.9551 14.7425 11.1025 14.6968 11.2745ZM15.7837 7.94234C15.9077 7.81642 15.9773 7.64581 15.9772 7.46797V3.67127C15.9772 3.49324 15.9074 3.3225 15.7831 3.19661C15.6588 3.07072 15.4902 3 15.3145 3C15.1387 3 14.9701 3.07072 14.8458 3.19661C14.7215 3.3225 14.6517 3.49324 14.6517 3.67127V5.84708L14.3778 5.56962C13.61 4.79179 12.6535 4.23238 11.6046 3.94764C10.5557 3.66289 9.45126 3.66284 8.40232 3.9475C7.35338 4.23215 6.3969 4.79147 5.62905 5.56923C4.8612 6.34699 4.30904 7.31578 4.02807 8.37821C4.00253 8.46423 3.9943 8.55457 4.00386 8.64388C4.01343 8.73318 4.04059 8.81963 4.08374 8.89811C4.12689 8.97658 4.18515 9.04549 4.25507 9.10075C4.325 9.156 4.40516 9.19648 4.49081 9.21979C4.57646 9.24309 4.66586 9.24875 4.75371 9.23642C4.84156 9.2241 4.92607 9.19404 5.00224 9.14803C5.07841 9.10202 5.14469 9.04099 5.19715 8.96856C5.24961 8.89614 5.28718 8.81378 5.30764 8.72638C5.52818 7.89139 5.96191 7.12993 6.56519 6.51858C7.16848 5.90723 7.92007 5.46755 8.74436 5.24375C9.56866 5.01995 10.4366 5.01992 11.2609 5.24366C12.0852 5.46741 12.8368 5.90704 13.4402 6.51835L13.715 6.79581H11.5659C11.3901 6.79581 11.2215 6.86653 11.0972 6.99242C10.9729 7.1183 10.9031 7.28904 10.9031 7.46708C10.9031 7.64511 10.9729 7.81585 11.0972 7.94174C11.2215 8.06762 11.3901 8.13835 11.5659 8.13835H15.3153C15.4909 8.13843 15.6594 8.06793 15.7837 7.94234Z" fill="#BDBDBD"/>
</g>
</svg>
