<svg width="44" height="44" viewBox="0 0 44 44" fill="none" xmlns="http://www.w3.org/2000/svg">
<g clip-path="url(#clip0_927_8964)">
<circle cx="22" cy="22" r="22" fill="#C0C0C0"/>
<path fill-rule="evenodd" clip-rule="evenodd" d="M27.3666 13.9844V14.2371C28.8125 14.3693 30.2525 14.5594 31.6832 14.807C31.7912 14.8257 31.8945 14.8655 31.9872 14.9241C32.0798 14.9828 32.16 15.0591 32.2231 15.1487C32.2863 15.2383 32.3312 15.3395 32.3552 15.4464C32.3793 15.5534 32.382 15.664 32.3633 15.772C32.3446 15.8801 32.3048 15.9833 32.2462 16.076C32.1876 16.1686 32.1113 16.2488 32.0216 16.312C31.932 16.3751 31.8309 16.42 31.7239 16.4441C31.6169 16.4681 31.5063 16.4709 31.3983 16.4521L31.1656 16.4132L30.047 30.9613C29.9825 31.8002 29.6037 32.5837 28.9865 33.1553C28.3693 33.727 27.559 34.0446 26.7177 34.0446H17.9988C17.1575 34.0446 16.3473 33.727 15.73 33.1553C15.1128 32.5837 14.7341 31.8002 14.6696 30.9613L13.5498 16.4132L13.3171 16.4521C13.2091 16.4709 13.0985 16.4681 12.9915 16.4441C12.8846 16.42 12.7834 16.3751 12.6938 16.312C12.5128 16.1844 12.3899 15.9902 12.3521 15.772C12.3143 15.5539 12.3647 15.3297 12.4923 15.1487C12.6198 14.9677 12.814 14.8448 13.0322 14.807C14.4628 14.5591 15.9028 14.369 17.3488 14.2371V13.9844C17.3488 12.2435 18.699 10.7564 20.4833 10.6997C21.7329 10.6597 22.9836 10.6597 24.2333 10.6997C26.0176 10.7564 27.3666 12.2435 27.3666 13.9844ZM20.5367 12.3682C21.7508 12.3294 22.9658 12.3294 24.1798 12.3682C25.018 12.3949 25.697 13.1006 25.697 13.9844V14.1102C23.4729 13.9751 21.2426 13.9751 19.0184 14.1102V13.9844C19.0184 13.1006 19.6963 12.3949 20.5367 12.3682ZM20.1415 18.9856C20.1373 18.8759 20.1115 18.7682 20.0656 18.6685C20.0198 18.5689 19.9547 18.4792 19.8742 18.4047C19.7937 18.3302 19.6993 18.2722 19.5964 18.2342C19.4935 18.1962 19.3841 18.1788 19.2744 18.183C19.1648 18.1873 19.0571 18.213 18.9574 18.2589C18.8578 18.3048 18.7681 18.3698 18.6936 18.4504C18.6191 18.5309 18.5611 18.6253 18.5231 18.7282C18.485 18.8311 18.4677 18.9405 18.4719 19.0501L18.8581 29.068C18.8667 29.2892 18.9628 29.498 19.1253 29.6484C19.2058 29.7229 19.3001 29.7808 19.403 29.8188C19.5058 29.8568 19.6151 29.8742 19.7247 29.87C19.8342 29.8657 19.9419 29.8399 20.0415 29.7941C20.1411 29.7483 20.2307 29.6832 20.3051 29.6028C20.3796 29.5223 20.4375 29.428 20.4755 29.3251C20.5135 29.2223 20.5309 29.113 20.5267 29.0034L20.1415 18.9856ZM26.2413 19.0501C26.2495 18.9384 26.235 18.8261 26.1989 18.7201C26.1628 18.614 26.1057 18.5164 26.031 18.4328C25.9563 18.3493 25.8656 18.2817 25.7642 18.234C25.6629 18.1863 25.5529 18.1594 25.441 18.1551C25.329 18.1508 25.2174 18.169 25.1126 18.2087C25.0079 18.2485 24.9122 18.3089 24.8313 18.3864C24.7504 18.4639 24.6859 18.5569 24.6417 18.6598C24.5974 18.7627 24.5744 18.8735 24.5739 18.9856L24.1876 29.0034C24.1791 29.2248 24.2588 29.4406 24.4093 29.6032C24.5598 29.7658 24.7688 29.862 24.9902 29.8705C25.2116 29.8791 25.4273 29.7993 25.5899 29.6488C25.7526 29.4983 25.8487 29.2894 25.8573 29.068L26.2413 19.0501Z" fill="white"/>
</g>
<defs>
<clipPath id="clip0_927_8964">
<rect width="44" height="44" fill="white"/>
</clipPath>
</defs>
</svg>
