<svg width="21" height="13" viewBox="0 0 21 13" fill="none" xmlns="http://www.w3.org/2000/svg">
<path id="Vector" d="M1 2.12665C1 1.26265 1.933 0.721647 2.683 1.14965L9.791 5.21165C9.96307 5.31008 10.1061 5.45224 10.2055 5.62372C10.305 5.7952 10.3574 5.98991 10.3574 6.18815C10.3574 6.38638 10.305 6.5811 10.2055 6.75258C10.1061 6.92406 9.96307 7.06621 9.791 7.16465L2.683 11.2266C2.51182 11.3244 2.31796 11.3755 2.12082 11.3748C1.92369 11.374 1.73021 11.3215 1.55976 11.2225C1.38932 11.1234 1.24789 10.9813 1.14965 10.8104C1.05141 10.6395 0.999801 10.4458 1 10.2486V2.12665ZM10.75 2.12665C10.75 1.26265 11.683 0.721647 12.433 1.14965L19.541 5.21165C19.7131 5.31008 19.8561 5.45224 19.9555 5.62372C20.055 5.7952 20.1074 5.98991 20.1074 6.18815C20.1074 6.38638 20.055 6.5811 19.9555 6.75258C19.8561 6.92406 19.7131 7.06621 19.541 7.16465L12.433 11.2266C12.2619 11.3244 12.0681 11.3755 11.8711 11.3748C11.674 11.3741 11.4806 11.3217 11.3102 11.2227C11.1398 11.1238 10.9983 10.9818 10.9 10.8111C10.8017 10.6403 10.75 10.4467 10.75 10.2496V2.12665Z" stroke="#BDBDBD" stroke-width="1.3" stroke-linecap="round" stroke-linejoin="round"/>
</svg>
